# xmcd
#
# Track frame offsets:
#       150
#       21316
#       48781
#       78229
#
# Disc length: 1499 seconds
#
# Revision: 2
# Processed by: cddbd v1.5.2PL0 Copyright (c) Steve Scherf et al.
# Submitted via: WaveLab 6.10
#
DISCID=2305d904
DTITLE=Chris Brown - Forever
DYEAR=2008
DGENRE=
TTITLE0=Titel 01
TTITLE1=Titel 02
TTITLE2=Titel 03
TTITLE3=Titel 04
EXTD=
EXTT0=
EXTT1=
EXTT2=
EXTT3=
PLAYORDER=
